<?xml version="1.0" encoding="utf-8"?>
<!-- Generator: Adobe Illustrator 26.3.1, SVG Export Plug-In . SVG Version: 6.00 Build 0)  -->
<svg version="1.1" id="Layer_1" xmlns="http://www.w3.org/2000/svg" xmlns:xlink="http://www.w3.org/1999/xlink" x="0px" y="0px"
	 viewBox="0 0 1000 1000" style="enable-background:new 0 0 1000 1000;" xml:space="preserve">
<style type="text/css">
	.st0{fill:#FFFFFF;}
	.st1{fill:none;}
	.st2{fill:#B1F2BC;}
	.st3{fill:#A4D8FF;}
	.st4{fill:none;stroke:#000000;stroke-width:4;stroke-linecap:round;stroke-miterlimit:8;}
	.st5{fill-rule:evenodd;clip-rule:evenodd;stroke:#000000;stroke-miterlimit:10;}
	.st6{stroke:#000000;stroke-width:4;stroke-linecap:round;stroke-miterlimit:8;}
</style>
<path class="st0" d="M200,0h600c110.5,0,200,89.5,200,200v600c0,110.5-89.5,200-200,200H200C89.5,1000,0,910.5,0,800V200
	C0,89.5,89.5,0,200,0z"/>
<path class="st1" d="M0,28h1000V972H0V28z"/>
<g transform="translate(130 10) rotate(0 60 40)">
	<path class="st2" d="M323.4,117.3c21,0,42,0,93.2,0c62.1,0,93.2,31.1,93.2,93.2l0,0c0,62.1-31.1,93.2-93.2,93.2
		c-19.7,0-39.4,0-93.2,0c-62.1,0-93.2-31.1-93.2-93.2l0,0C230.2,148.3,261.3,117.3,323.4,117.3"/>
	<path class="st2" d="M323.4,117.3c22.2,0,44.5,0,93.2,0 M323.4,117.3c22.9,0,45.8,0,93.2,0 M416.6,117.3
		c62.1,0,93.2,31.1,93.2,93.2 M416.6,117.3c62.1,0,93.2,31.1,93.2,93.2 M509.8,210.5L509.8,210.5 M509.8,210.5L509.8,210.5
		 M509.8,210.5c0,62.1-31.1,93.2-93.2,93.2 M509.8,210.5c0,62.1-31.1,93.2-93.2,93.2 M416.6,303.6c-22.7,0-45.4,0-93.2,0
		 M416.6,303.6c-32.5,0-64.9,0-93.2,0 M323.4,303.6c-62.1,0-93.2-31.1-93.2-93.2 M323.4,303.6c-62.1,0-93.2-31.1-93.2-93.2
		 M230.2,210.5L230.2,210.5 M230.2,210.5L230.2,210.5 M230.2,210.5c0-62.1,31.1-93.2,93.2-93.2 M230.2,210.5
		c0-62.1,31.1-93.2,93.2-93.2"/>
</g>
<g transform="translate(10 210) rotate(0 60 60)">
	<path class="st3" d="M70.7,363.2h279.5v279.5H70.7"/>
	<path class="st3" d="M70.7,363.2c110.6,0,221.1,0,279.5,0 M70.7,363.2c58.7,0,117.4,0,279.5,0 M350.2,363.2
		c0,103.5,0,207.1,0,279.5 M350.2,363.2c0,91.6,0,183.2,0,279.5 M350.2,642.7c-82.6,0-165.3,0-279.5,0 M350.2,642.7
		c-76.8,0-153.6,0-279.5,0 M70.7,642.7c0-65.9,0-131.8,0-279.5 M70.7,642.7c0-102.8,0-205.7,0-279.5"/>
</g>
<g>
	<g transform="translate(189.89999999999998 96) rotate(0 -60.000042779056 54.0004467340905)">
		<path class="st4" d="M309.9,238.6c0,26.7,0,53.5,0,79 M309.9,238.6c0,22.5,0,44.9,0,79 M309.9,317.6c0,22.2-12.4,33.3-37.3,33.3
			 M309.9,317.6c0,22.2-12.4,33.3-37.3,33.3 M272.6,350.9c-62.6,0-125.2,0-205,0 M272.6,350.9c-52.7,0-105.5,0-205,0 M67.6,350.9
			c-24.9,0-37.3,11.1-37.3,33.3 M67.6,350.9c-24.9,0-37.3,11.1-37.3,33.3 M30.3,384.2c0,24.8,0,49.7,0,79 M30.3,384.2
			c0,19.1,0,38.2,0,79"/>
	</g>
	<g transform="translate(189.89999999999998 96) rotate(0 -60.000042779056 54.0004467340905)">
		<path class="st5" d="M30.3,463.2l-14.8-28.3h29.5L30.3,463.2"/>
		<path class="st6" d="M30.3,463.2c-5-9.6-10-19.1-14.8-28.3 M30.3,463.2c-4.2-8-8.4-16.1-14.8-28.3 M15.6,434.9
			c7.2,0,14.4,0,29.5,0 M15.6,434.9c10.3,0,20.6,0,29.5,0 M45.1,434.9c-4.2,8-8.4,16.1-14.8,28.3 M45.1,434.9
			c-4.6,8.7-9.1,17.4-14.8,28.3 M30.3,463.2L30.3,463.2 M30.3,463.2L30.3,463.2"/>
	</g>
</g>
<g transform="translate(250 210) rotate(0 60 60)">
	<path class="st3" d="M389.8,363.2h279.5v279.5H389.8"/>
	<path class="st3" d="M389.8,363.2c79.4,0,158.8,0,279.5,0 M389.8,363.2c68.1,0,136.2,0,279.5,0 M669.3,363.2
		c0,97.4,0,194.8,0,279.5 M669.3,363.2c0,79.6,0,159.3,0,279.5 M669.3,642.7c-86.2,0-172.4,0-279.5,0 M669.3,642.7
		c-77.5,0-154.9,0-279.5,0 M389.8,642.7c0-91.2,0-182.4,0-279.5 M389.8,642.7c0-77.2,0-154.5,0-279.5"/>
</g>
<g>
	<g transform="translate(189.89999999999998 96) rotate(0 59.99995722094394 54.00044673409052)">
		<path class="st4" d="M309.9,238.6c0,15.9,0,31.7,0,79 M309.9,238.6c0,30.2,0,60.3,0,79 M309.9,317.6c0,22.2,12.4,33.3,37.3,33.3
			 M309.9,317.6c0,22.2,12.4,33.3,37.3,33.3 M347.1,350.9c70.5,0,140.9,0,205,0 M347.1,350.9c57.4,0,114.8,0,205,0 M552.1,350.9
			c24.9,0,37.3,11.1,37.3,33.3 M552.1,350.9c24.9,0,37.3,11.1,37.3,33.3 M589.4,384.2c0,16.4,0,32.8,0,79 M589.4,384.2
			c0,16.1,0,32.2,0,79"/>
	</g>
	<g transform="translate(189.89999999999998 96) rotate(0 59.99995722094394 54.00044673409052)">
		<path class="st5" d="M589.4,463.2l-14.8-28.3h29.5L589.4,463.2"/>
		<path class="st6" d="M589.4,463.2c-3-5.7-5.9-11.4-14.8-28.3 M589.4,463.2c-5.6-10.8-11.3-21.6-14.8-28.3 M574.6,434.9
			c9,0,18.1,0,29.5,0 M574.6,434.9c7.6,0,15.2,0,29.5,0 M604.2,434.9c-3.2,6.2-6.5,12.4-14.8,28.3 M604.2,434.9
			c-4.6,8.7-9.1,17.4-14.8,28.3 M589.4,463.2L589.4,463.2 M589.4,463.2L589.4,463.2"/>
	</g>
</g>
</svg>
