<?xml version="1.0" encoding="utf-8"?>
<!-- Generator: Adobe Illustrator 26.3.1, SVG Export Plug-In . SVG Version: 6.00 Build 0)  -->
<svg version="1.1" id="Layer_1" xmlns="http://www.w3.org/2000/svg" xmlns:xlink="http://www.w3.org/1999/xlink" x="0px" y="0px"
	 viewBox="0 0 1000 1000" style="enable-background:new 0 0 1000 1000;" xml:space="preserve">
<style type="text/css">
	.st0{fill:#FFFFFF;}
	.st1{fill:none;}
	.st2{display:none;fill:#6965DB;}
	.st3{fill:#B1F2BC;}
	.st4{fill:#A4D8FF;}
	.st5{display:none;}
	.st6{display:inline;}
	.st7{fill:none;stroke:#000000;stroke-width:4;stroke-linecap:round;stroke-miterlimit:8;}
	.st8{fill-rule:evenodd;clip-rule:evenodd;stroke:#000000;stroke-miterlimit:10;}
	.st9{stroke:#000000;stroke-width:4;stroke-linecap:round;stroke-miterlimit:8;}
</style>
<path class="st0" d="M200,0h600c110.5,0,200,89.5,200,200v600c0,110.5-89.5,200-200,200H200C89.5,1000,0,910.5,0,800V200
	C0,89.5,89.5,0,200,0z"/>
<path class="st1" d="M0,28h1000V972H0V28z"/>
<path class="st2" d="M872.9,742.9c-1.3-1.2-3.2-1.6-5-1.1c-39.2-57.9-89-112.7-137.2-165.7l-7.9-8.7c0-1-0.5-2-1.1-2.8
	c-0.8-1-1.9-1.7-3.2-1.9l-1.6-1.7l-1.1-0.8c-1.4-3-5-5.2-8.9-3.3c-14.8,7.6-28,18.4-41.1,28.4c-17.5,13.4-34.6,27.3-50.7,42.2
	c-6.5,6.1-13,12.4-18.4,19.5c-2.6,3.5-0.7,6.7,2.5,8.1c-11.4,11.2-22.9,22.9-34.4,35c-1,1.1-1.6,2.6-1.5,4.1
	c0.1,1.5,0.8,2.9,2.1,3.8l20.2,15.4c0,0,0.1,0.3,0.3,0.4c28.9,28.5,79.5,68,133.2,109.9c7.9,6.3,16,12.5,24,18.8
	c3.6,4.4,7.1,8.8,10.5,13.1c1.8,2.3,5.1,2.8,7.5,1c1.2,0.9,2.4,2,3.6,2.9c2.3,1.8,5.7,1.4,7.5-0.9c0,0,0,0,0,0
	c0.7-0.8,0.9-1.9,1-2.9c0.4,0,0.7,0.3,0.9,0.3c1.4,0,2.9-0.6,3.9-1.7l95.1-103.9c2-2.1,1.8-5.4-0.3-7.4
	C872.9,743,872.8,743,872.9,742.9L872.9,742.9L872.9,742.9z M599.7,706.9c0.7,0.8,1.3,1.6,2,2.3c10.8,9.2,22.4,19.1,34.2,29.2
	L588,701.9c0,0-3-2.1-4.9-3.4c-1-0.7-2-1.5-2.9-2.2l-3.6-3c0,0,0.7-0.7,0.9-1l3.3-3.3c16.1-16.3,43.6-43.4,57.9-56.6
	C623.7,647.5,593.3,691.9,599.7,706.9L599.7,706.9L599.7,706.9z M763.6,836l-39.4-30.1c-15.4-16-32.1-31.8-49-47
	c21.3,16.4,39.5,30.4,42.2,32.8c20.7,18.4,19.7,15,33.9,27.2l17.1,12.4C766.7,832.8,765,834.4,763.6,836L763.6,836L763.6,836z
	 M773.5,843.6l-0.7-0.6c1.5-1.2,3.1-2.3,4.6-3.6L773.5,843.6L773.5,843.6L773.5,843.6z M147.9,233.3c1.3,6.7,2.5,13.4,3.7,19.7
	c6.4,34.6,12.4,65.7,23.8,89.3l4.5,17.9c1.8,6.8,4.3,15.3,6.6,17.1c26.6,23.6,67.5,58.7,111.1,91.8c2,1.5,4.7,1.4,6.5-0.1
	c0.1,0.2,0.3,0.3,0.4,0.4c1,0.9,2.2,1.4,3.6,1.4c1.5,0,2.9-0.6,3.9-1.8C368,406.9,409.6,355.8,439.3,313c1.9-2.3,2.8-5,2.7-7.9
	c1.9-2.2,3.8-4.5,5.6-6.4c2-2.1,2-5.4-0.1-7.4c-0.3-0.2-0.5-0.5-0.8-0.7c-0.1-1.3-0.7-2.5-1.6-3.4c-13-12.5-22.6-21.6-32.3-30.7
	c-17.2-16.1-35-32.7-72.6-70.2c-0.2-0.2-0.5-0.4-0.7-0.6c-0.6-0.6-1.3-1-2.1-1.3c-10.4-3.6-31.7-7.3-58.5-12
	c-39.4-6.7-93.5-16.1-142.1-30.6h-0.4v-0.1c0,0-0.2,0-0.3,0.2h-0.1l0.4-0.2c0,0-2.9,0.1-3.5,0.4c-0.7,0.4-1.3,0.8-1.8,1.4
	s-0.8,1.1-4.4,1.9c-3.6,0.7,0.7,0,1,0h-1v0.3c0.7,3.2,0.5,5.4,1.5,9.1c-0.2,0.9,2,9.5,2.2,10.4l17.1,67.9L147.9,233.3L147.9,233.3z
	 M437.2,294.4c0,0-0.3,0.4-0.4,0.5l-6-6.6C432.9,290.2,435,292.1,437.2,294.4z M370.9,382.1c0,0-0.7,0.7-0.9,1.1l-0.2-0.2
	C370.2,382.8,370.6,382.4,370.9,382.1L370.9,382.1L370.9,382.1z M333.1,194.3c3.3,3.3,16.3,15.4,19.3,18.4
	c-13.6-6.2-47.3-21.9-63-26.9C304.8,188.5,326.1,192,333.1,194.3L333.1,194.3z M153.8,168.4c7.9,13.5,14,60.7,20.2,106.5
	c-3.5-14.8-6.4-29.2-9.3-43c-4.9-23.9-9.3-45.3-15.6-64.3c1.3,0.1,2.9,0.3,4.6,0.5C153.7,168.2,153.7,168.3,153.8,168.4L153.8,168.4
	L153.8,168.4z M151.1,157.1c-2.1-0.2-4.1-0.4-5.8-0.5c-0.2-0.4-0.3-0.7-0.4-1.1L151.1,157.1L151.1,157.1L151.1,157.1z M130.4,161.3
	v-0.2V161.3z M864.4,150.3c0.4-2.1-10.3-11.6-6.9-11.8c7.9-0.4,8-12.6,0-12.2c-10.6,0.6-21.2,3-31.5,5c-18.5,3.5-36.9,7.3-55.3,11.3
	c-41,8.8-82,18-122.4,29.1c-12.7,3.5-26.7,6.5-38.4,12.7c-3.9,2.1-3.7,6.3-1.6,8.9c-0.8,0.5-1.7,0.7-2.6,0.8
	c-3.5,0.7-6.9,1.2-10.4,1.8c-2.9,0.5-4.8,3.2-4.4,6.1c0.1,0.7,0.4,1.4,0.7,2c-21.7,29-46.4,60.2-73.1,93c-26.3,30-53.6,62-81.5,94.8
	C349.1,495,249.3,612.1,138.9,715.3c-2.1,2-2.2,5.3-0.3,7.5c0.5,0.6,1.1,0.9,1.8,1.2c-1.5,1.4-3,2.8-4.5,4.1c-0.9,0.8-1.3,1.9-1.5,3
	c-0.7,0.7-1.5,1.6-2.1,2.3c-2,2.1-1.9,5.5,0.3,7.5c2.1,2,5.5,1.9,7.5-0.3c0.4-0.4,0.7-0.8,1.1-1.2c3-3.1,7.9-3.3,11.1-0.3
	c0.1,0.1,0.2,0.2,0.3,0.3c6.4,6.9,12.5,13.5,18.2,19.5l-12.9-10.7c-2.2-1.9-5.6-1.6-7.5,0.7c-1.9,2.2-1.6,5.6,0.7,7.5l138.5,116.2
	c1,0.8,2.2,1.2,3.5,1.2c1.4,0,2.7-0.6,3.7-1.6l3.4-3.4c2,0.9,4.4,0.5,5.9-1.1c187.8-188.6,339-331.1,512.1-458.5
	c1.6-1.1,2.3-3,2.1-4.8c2.1-0.2,3.8-1.7,4.5-3.6c32-97.8,38.1-184.3,40-226.8c0-0.3,0.1-0.5,0.2-0.7c0.2-0.5,0.3-0.9,0.4-1.3
	c0.3-1,0.5-1.8,0.5-1.8c2.4-7.3,1.6-14.3-1.4-20.1L864.4,150.3L864.4,150.3z M528.7,303.3c8.4-9.6,16.7-19.1,25-28.2
	c-53.8,70.8-143,180-269.3,309.7C370.4,489.6,457,391,528.7,303.3L528.7,303.3z M224.5,796.8l-0.3-0.3c1,0.2,1.8,0.4,1.9,0.4
	C225.5,796.8,225,796.8,224.5,796.8L224.5,796.8L224.5,796.8z M289,856.8l-0.5-0.4l0.3-0.3c0.2,0,0.3,0.2,0.4,0.2
	C289.2,856.5,289,856.6,289,856.8L289,856.8z M367.1,789.4L380,776c0.1,0.1,0.2,0.3,0.3,0.5C375.9,780.7,371.5,785.1,367.1,789.4
	L367.1,789.4z M388,768.8c2.4-2.8,5.2-6.1,8.1-9.5c0.1-0.1,0.2-0.3,0.4-0.4c30.7-31.7,62.4-63.7,95.1-95.8c0.2-0.2,0.5-0.4,0.7-0.6
	c8-6.2,17-13,25.4-19.4C475.5,683.5,432.6,725.1,388,768.8L388,768.8L388,768.8z M590.4,246.5c-17.4,22.6-36.4,52-52.6,75.4
	c-51,73.9-215.3,255-219,258.4c-25.3,24.5-101.7,97.8-150.4,143.6c-1.3,1.2-2.3,2.2-3.2,3.3c-2.8-3-2.7-7.7,0.2-10.5
	c0,0,0,0,0.1-0.1c232-218.7,372.7-400.8,429.9-480.2c-1.2,3.1-2.2,6.4-5.1,10.2L590.4,246.5z M744.7,312.9l-0.1,0.2
	C744.6,312.9,744.4,312.4,744.7,312.9z M681.1,353.3c-21.1-12.2-31-30.6-25.3-49.1l1.8-6.2c0.7-1.8,1.6-3.6,2.6-5.3
	c5.5-9.2,13.9-17.3,23.6-22.1c0.5-0.2,0.9-0.3,1.4-0.4c-0.5-1.3-0.6-2.7-0.4-4c0.5-2.9,2.3-5.4,6.2-5.4c6.3,0,25.7,5.8,33.1,12.1
	c2.2,1.8,4.4,3.7,6.4,5.9c2.8,3.3,6.9,8.6,9,12.4c1.2,0.6,2.1,5.8,3.6,8.5c1.3,4.3,1.9,8.7,1.7,13.1c0,0.2,0,0.2,0.1,0.3
	c-0.3,0.7,0,3.5-0.4,3.7c-0.9,6.7-3.4,13.4-7,19.2c-0.4,0.5-0.7,1-1,1.5c0,0.1-0.2,0.2-0.3,0.4c-2.8,4-6.1,7.8-10.1,10.6
	c-11.8,8.3-25.5,10.8-39.3,7.4c-1.8-0.7-3.6-1.5-5.3-2.3L681.1,353.3L681.1,353.3z M833.2,338c-4.6,19.2-10.2,39.2-16.8,59.6
	c-0.3,0.7-0.3,1.5-0.3,2.1c-0.9,0.1-1.8,0.5-2.5,1c-41.5,30.5-81.6,61.9-121.3,94.5c34.3-31,69.1-61.9,105-93
	c10.4-9,17.4-21.4,19.7-35l5.2-31.5l0.3-0.9c2.3-6.6,12.5-3.7,10.9,3.1L833.2,338L833.2,338z"/>
<g transform="translate(130 10) rotate(0 60 40)">
	<path class="st3" d="M323.4,117.3c21,0,42,0,93.2,0c62.1,0,93.2,31.1,93.2,93.2l0,0c0,62.1-31.1,93.2-93.2,93.2
		c-19.7,0-39.4,0-93.2,0c-62.1,0-93.2-31.1-93.2-93.2l0,0C230.2,148.3,261.3,117.3,323.4,117.3"/>
	<path class="st3" d="M323.4,117.3c22.2,0,44.5,0,93.2,0 M323.4,117.3c22.9,0,45.8,0,93.2,0 M416.6,117.3
		c62.1,0,93.2,31.1,93.2,93.2 M416.6,117.3c62.1,0,93.2,31.1,93.2,93.2 M509.8,210.5L509.8,210.5 M509.8,210.5L509.8,210.5
		 M509.8,210.5c0,62.1-31.1,93.2-93.2,93.2 M509.8,210.5c0,62.1-31.1,93.2-93.2,93.2 M416.6,303.6c-22.7,0-45.4,0-93.2,0
		 M416.6,303.6c-32.5,0-64.9,0-93.2,0 M323.4,303.6c-62.1,0-93.2-31.1-93.2-93.2 M323.4,303.6c-62.1,0-93.2-31.1-93.2-93.2
		 M230.2,210.5L230.2,210.5 M230.2,210.5L230.2,210.5 M230.2,210.5c0-62.1,31.1-93.2,93.2-93.2 M230.2,210.5
		c0-62.1,31.1-93.2,93.2-93.2"/>
</g>
<g transform="translate(10 210) rotate(0 60 60)">
	<path class="st4" d="M70.7,363.2h279.5v279.5H70.7"/>
	<path class="st4" d="M70.7,363.2c110.6,0,221.1,0,279.5,0 M70.7,363.2c58.7,0,117.4,0,279.5,0 M350.2,363.2
		c0,103.5,0,207.1,0,279.5 M350.2,363.2c0,91.6,0,183.2,0,279.5 M350.2,642.7c-82.6,0-165.3,0-279.5,0 M350.2,642.7
		c-76.8,0-153.6,0-279.5,0 M70.7,642.7c0-65.9,0-131.8,0-279.5 M70.7,642.7c0-102.8,0-205.7,0-279.5"/>
</g>
<g class="st5">
	<g transform="translate(189.89999999999998 96) rotate(0 -60.000042779056 54.0004467340905)" class="st6">
		<path class="st7" d="M309.9,238.6c0,26.7,0,53.5,0,79 M309.9,238.6c0,22.5,0,44.9,0,79 M309.9,317.6c0,22.2-12.4,33.3-37.3,33.3
			 M309.9,317.6c0,22.2-12.4,33.3-37.3,33.3 M272.6,350.9c-62.6,0-125.2,0-205,0 M272.6,350.9c-52.7,0-105.5,0-205,0 M67.6,350.9
			c-24.9,0-37.3,11.1-37.3,33.3 M67.6,350.9c-24.9,0-37.3,11.1-37.3,33.3 M30.3,384.2c0,24.8,0,49.7,0,79 M30.3,384.2
			c0,19.1,0,38.2,0,79"/>
	</g>
	<g transform="translate(189.89999999999998 96) rotate(0 -60.000042779056 54.0004467340905)" class="st6">
		<path class="st8" d="M30.3,463.2l-14.8-28.3h29.5L30.3,463.2"/>
		<path class="st9" d="M30.3,463.2c-5-9.6-10-19.1-14.8-28.3 M30.3,463.2c-4.2-8-8.4-16.1-14.8-28.3 M15.6,434.9
			c7.2,0,14.4,0,29.5,0 M15.6,434.9c10.3,0,20.6,0,29.5,0 M45.1,434.9c-4.2,8-8.4,16.1-14.8,28.3 M45.1,434.9
			c-4.6,8.7-9.1,17.4-14.8,28.3 M30.3,463.2L30.3,463.2 M30.3,463.2L30.3,463.2"/>
	</g>
</g>
<g transform="translate(250 210) rotate(0 60 60)">
	<path class="st4" d="M389.8,363.2h279.5v279.5H389.8"/>
	<path class="st4" d="M389.8,363.2c79.4,0,158.8,0,279.5,0 M389.8,363.2c68.1,0,136.2,0,279.5,0 M669.3,363.2
		c0,97.4,0,194.8,0,279.5 M669.3,363.2c0,79.6,0,159.3,0,279.5 M669.3,642.7c-86.2,0-172.4,0-279.5,0 M669.3,642.7
		c-77.5,0-154.9,0-279.5,0 M389.8,642.7c0-91.2,0-182.4,0-279.5 M389.8,642.7c0-77.2,0-154.5,0-279.5"/>
</g>
<g class="st5">
	<g transform="translate(189.89999999999998 96) rotate(0 59.99995722094394 54.00044673409052)" class="st6">
		<path class="st7" d="M309.9,238.6c0,15.9,0,31.7,0,79 M309.9,238.6c0,30.2,0,60.3,0,79 M309.9,317.6c0,22.2,12.4,33.3,37.3,33.3
			 M309.9,317.6c0,22.2,12.4,33.3,37.3,33.3 M347.1,350.9c70.5,0,140.9,0,205,0 M347.1,350.9c57.4,0,114.8,0,205,0 M552.1,350.9
			c24.9,0,37.3,11.1,37.3,33.3 M552.1,350.9c24.9,0,37.3,11.1,37.3,33.3 M589.4,384.2c0,16.4,0,32.8,0,79 M589.4,384.2
			c0,16.1,0,32.2,0,79"/>
	</g>
	<g transform="translate(189.89999999999998 96) rotate(0 59.99995722094394 54.00044673409052)" class="st6">
		<path class="st8" d="M589.4,463.2l-14.8-28.3h29.5L589.4,463.2"/>
		<path class="st9" d="M589.4,463.2c-3-5.7-5.9-11.4-14.8-28.3 M589.4,463.2c-5.6-10.8-11.3-21.6-14.8-28.3 M574.6,434.9
			c9,0,18.1,0,29.5,0 M574.6,434.9c7.6,0,15.2,0,29.5,0 M604.2,434.9c-3.2,6.2-6.5,12.4-14.8,28.3 M604.2,434.9
			c-4.6,8.7-9.1,17.4-14.8,28.3 M589.4,463.2L589.4,463.2 M589.4,463.2L589.4,463.2"/>
	</g>
</g>
</svg>
